<?xml version="1.0" encoding="utf-8"?>
<!-- Generator: Adobe Illustrator 17.0.0, SVG Export Plug-In . SVG Version: 6.00 Build 0)  -->
<!DOCTYPE svg PUBLIC "-//W3C//DTD SVG 1.1//EN" "http://www.w3.org/Graphics/SVG/1.1/DTD/svg11.dtd">
<svg version="1.1"
	 id="svg2" sodipodi:docname="Twitter_bird_logo_2012.svg" inkscape:version="0.48.4 r9939" xmlns:dc="http://purl.org/dc/elements/1.1/" xmlns:cc="http://creativecommons.org/ns#" xmlns:rdf="http://www.w3.org/1999/02/22-rdf-syntax-ns#" xmlns:svg="http://www.w3.org/2000/svg" xmlns:sodipodi="http://sodipodi.sourceforge.net/DTD/sodipodi-0.dtd" xmlns:inkscape="http://www.inkscape.org/namespaces/inkscape"
	 xmlns="http://www.w3.org/2000/svg" xmlns:xlink="http://www.w3.org/1999/xlink" x="0px" y="0px" width="171.505px"
	 height="139.378px" viewBox="0 0 171.505 139.378" enable-background="new 0 0 171.505 139.378" xml:space="preserve">
<sodipodi:namedview  fit-margin-bottom="0" fit-margin-right="0" inkscape:window-maximized="1" inkscape:window-y="-8" inkscape:current-layer="layer1" inkscape:document-units="px" inkscape:pageopacity="0.0" inkscape:window-x="-8" inkscape:window-height="962" inkscape:pageshadow="2" inkscape:window-width="1280" fit-margin-left="0" fit-margin-top="0" showgrid="false" inkscape:cy="50.181142" inkscape:cx="101.29413" inkscape:zoom="3.7200571" borderopacity="1.0" bordercolor="#666666" pagecolor="#ffffff" id="base">
	</sodipodi:namedview>
<g id="layer1" transform="translate(-282.32053,-396.30734)" inkscape:groupmode="layer" inkscape:label="Layer 1">
	<path id="path5" inkscape:connector-curvature="0" fill="#F1F3F3" d="M453.826,412.806c-6.31,2.799-13.092,4.69-20.209,5.54
		c7.264-4.355,12.844-11.25,15.471-19.467c-6.799,4.033-14.329,6.961-22.345,8.538c-6.418-6.839-15.562-11.111-25.683-11.111
		c-19.432,0-35.187,15.754-35.187,35.185c0,2.758,0.311,5.444,0.912,8.019c-29.243-1.467-55.17-15.476-72.525-36.764
		c-3.029,5.197-4.764,11.24-4.764,17.689c0,12.208,6.212,22.977,15.653,29.287c-5.768-0.183-11.193-1.766-15.937-4.401
		c-0.004,0.147-0.004,0.294-0.004,0.442c0,17.048,12.129,31.268,28.226,34.503c-2.952,0.804-6.061,1.234-9.27,1.234
		c-2.267,0-4.471-0.221-6.62-0.631c4.478,13.979,17.472,24.151,32.87,24.434c-12.042,9.438-27.214,15.063-43.7,15.063
		c-2.84,0-5.641-0.167-8.393-0.492c15.572,9.984,34.067,15.809,53.938,15.809c64.72,0,100.113-53.615,100.113-100.114
		c0-1.526-0.034-3.043-0.102-4.553C443.143,426.059,449.108,419.863,453.826,412.806L453.826,412.806z"/>
</g>
</svg>
